<?xml version="1.0" standalone="no"?>
<!DOCTYPE svg PUBLIC "-//W3C//DTD SVG 1.1//EN" "http://www.w3.org/Graphics/SVG/1.1/DTD/svg11.dtd" >
<svg xmlns="http://www.w3.org/2000/svg">
<metadata>
This is a custom SVG webfont generated by Font Squirrel.
Copyright   : c 1999 Nick Curtis All Rights Reserved Generated by Fontographer 352 
</metadata>
<defs>
<font id="webfontfwYAOjfv" horiz-adv-x="911" >
<font-face units-per-em="2048" ascent="1638" descent="-410" />
<missing-glyph horiz-adv-x="714" />
<glyph unicode=" "  horiz-adv-x="714" />
<glyph unicode="&#x09;" horiz-adv-x="714" />
<glyph unicode="&#xa0;" horiz-adv-x="714" />
<glyph unicode="!" horiz-adv-x="669" d="M31 166l274 309l334 -244l-272 -276q0 2 -53 34l-115 70l-114 72q-52 33 -54 35zM37 1325l549 127l4 -782l-428 -164z" />
<glyph unicode="&#x22;" horiz-adv-x="1140" d="M31 1114l155 555h71h149h152h69l-25 -158q-16 -111 -116.5 -187.5t-217.5 -127.5q-66 -27 -128 -47zM543 1114l155 555h71h149h152h69l-25 -158q-16 -111 -116.5 -187.5t-217.5 -127.5q-66 -27 -128 -47z" />
<glyph unicode="#" horiz-adv-x="1024" />
<glyph unicode="$" horiz-adv-x="808" d="M37 319q109 29 164 81.5t55 121.5q-2 31 -11 63.5t-32 69.5q-14 25 -32 47l-34 46q-18 20 -35.5 42.5t-31.5 47.5q-18 35 -26.5 66.5t-8.5 60.5q2 59 29.5 110t68.5 96q18 23 41 41.5t49 32.5v207h287v-192l213 -130q-51 -31 -90 -66.5t-57 -78.5q-2 -6 -5 -12l-6 -12 q-4 -12 -5 -24.5t-1 -25.5q0 -31 11.5 -57.5t31.5 -48.5q76 -82 118 -162t42 -158q0 -33 -8 -67.5t-27 -69.5q-33 -66 -89 -113t-128 -81v-154h-287v211z" />
<glyph unicode="%" horiz-adv-x="1024" />
<glyph unicode="&#x26;" horiz-adv-x="1705" d="M78 446q57 139 141 258t199 211l-133 302q115 86 243.5 148t284.5 87h246l194 -170q10 -8 17.5 -23.5t9.5 -31.5v-5v-5q0 -8 -3 -17.5t-9 -15.5l-238 -234l166 -211l358 215l76 -301l-272 -198l168 -281l-240 -258l-309 315l-53 -42l-54 -44l-1 -1q-1 -1 -3 -1 q-45 -41 -94 -78.5t-104 -64.5q-20 -8 -44 -13t-49 -5q-20 0 -41.5 5t-37.5 13q-104 66 -183.5 148.5t-142.5 170.5q-25 31 -47 64zM496 453q39 -20 85 -28.5t97 -8.5q18 0 36.5 1t37.5 3l-183 272zM705 1241q8 -45 27.5 -88t58.5 -86q45 10 80.5 38t68.5 66 q-53 27 -112.5 43.5t-122.5 26.5z" />
<glyph unicode="'" horiz-adv-x="655" d="M31 1114l155 555h71h149h152h69l-25 -158q-16 -111 -116.5 -187.5t-217.5 -127.5q-66 -27 -128 -47z" />
<glyph unicode="(" horiz-adv-x="638" d="M29 627q0 324 138 574.5t347 334.5l94 -358q-68 -29 -104.5 -126.5t-52.5 -205.5q-8 -55 -11.5 -107.5t-3.5 -97.5q0 -47 4 -106.5t13 -120.5q18 -113 55 -212.5t102 -125.5l-65 -367q-221 74 -368.5 329t-147.5 589z" />
<glyph unicode=")" horiz-adv-x="638" d="M37 76q66 27 102.5 126t55.5 212q8 61 12 120.5t4 106.5q0 45 -3 97.5t-11 107.5q-16 109 -53.5 206t-104.5 126l94 358q209 -84 347 -335t138 -574q0 -334 -147 -589t-369 -327z" />
<glyph unicode="*" d="M16 1307v139l119 -23l-98 72l98 96l66 -88l-19 109h140l-23 -107l72 86l96 -96l-107 -72l127 23v-139l-129 20l109 -67l-96 -99l-80 84l31 -104h-140l23 106l-70 -86l-98 99l96 71z" />
<glyph unicode="+" d="M-14 561v279h331v331h279v-331h332v-279h-332v-332h-279v332h-331z" />
<glyph unicode="," horiz-adv-x="655" d="M31 -268l155 553h71h149h152h69l-25 -158q-16 -111 -116.5 -186.5t-217.5 -126.5q-66 -27 -128 -47z" />
<glyph unicode="-" horiz-adv-x="518" d="M23 561v279h471v-279h-471z" />
<glyph unicode="." horiz-adv-x="669" d="M31 166l274 309l334 -244l-272 -276q0 2 -53 34l-115 70l-114 72q-52 33 -54 35z" />
<glyph unicode="/" horiz-adv-x="1097" d="M49 -410l815 2048h183l-814 -2048h-184z" />
<glyph unicode="0" horiz-adv-x="1638" d="M74 727q0 299 175 512t570 213t569.5 -213t174.5 -512q0 -301 -174.5 -514t-569.5 -213t-570 213t-175 514zM563 762q0 -109 76 -185.5t182 -76.5t181 76.5t75 185t-74.5 185.5t-181.5 77q-106 0 -182 -76.5t-76 -185.5z" />
<glyph unicode="1" horiz-adv-x="1050" d="M47 1090q227 86 441 177t411 185l84 -29l21 -1423h-570l-2 981l-379 57z" />
<glyph unicode="2" horiz-adv-x="1449" d="M66 0l434 618q-199 51 -316.5 163t-117.5 249q0 10 1 19.5t1 19.5q2 8 4 18.5t4 18.5q53 195 207.5 271.5t330.5 86.5q18 2 36 2h36q246 0 370 -135t128 -295v-10v-8q0 -53 -13.5 -106.5t-40.5 -100.5l-241 -434q98 6 223 32.5t272 65.5l-233 -475h-1085zM420 954 q0 -70 50 -118t122 -48t122 48.5t50 118t-50 118.5t-122 49t-122 -49t-50 -119z" />
<glyph unicode="3" horiz-adv-x="989" d="M45 104q4 2 7 4.5t7 4.5q8 6 16.5 11t16.5 9q80 49 147.5 106.5t67.5 137.5q-2 100 -78.5 162.5t-169.5 111.5v46v44q137 66 197.5 146t67.5 174q8 100 -56.5 157.5t-144.5 104.5q-2 0 -3 1l-1 1q-14 10 -29.5 18.5t-30.5 18.5l373 129q231 -78 370.5 -176t141.5 -225 q0 -51 -17.5 -103.5t-47.5 -103.5q-31 -53 -74 -104.5t-96 -104.5q94 -61 155.5 -140t61.5 -194v-18q0 -10 -2 -21q-12 -117 -118 -187.5t-231 -115.5q-29 -12 -57.5 -21.5l-56.5 -19.5z" />
<glyph unicode="4" horiz-adv-x="1622" d="M74 387l878 1065h428l-37 -788l205 -2l-6 -392l-192 6v-276h-500l16 262l-753 -10zM549 715l330 -25l18 383q-102 -74 -188 -165t-160 -193z" />
<glyph unicode="5" horiz-adv-x="1097" d="M49 80v15v16v13v15q141 27 264 87.5t150 203.5q2 10 3 20.5t1 18.5q-2 109 -109.5 181.5t-277.5 80.5q0 90 1 180t3 181q2 90 3 180t1 180h961q-14 -152 -152.5 -232.5t-376.5 -103.5l-16 -215q219 -33 372.5 -125t159.5 -299q8 -250 -149.5 -356.5t-401.5 -120.5 q-150 -8 -254 9.5t-182 70.5z" />
<glyph unicode="6" horiz-adv-x="1370" d="M63 592q10 281 213 491.5t500 382.5l266 -76l267 -75q-123 -88 -227.5 -179.5t-182.5 -187.5q180 -78 282.5 -200.5t102.5 -286.5q0 -33 -4 -64.5t-12 -66.5q-43 -172 -177.5 -265.5t-400.5 -91.5q-307 0 -472 168t-155 451zM442 565q0 -92 65.5 -157.5t156.5 -65.5 q90 0 155.5 65.5t65.5 157.5q0 94 -65.5 160t-155.5 66t-156 -66t-66 -160z" />
<glyph unicode="7" horiz-adv-x="1331" d="M61 952l9 500h1200q-55 -115 -103.5 -228.5t-89.5 -226.5q-90 -248 -148.5 -494.5t-90.5 -502.5h-639q80 244 190.5 505t253.5 542z" />
<glyph unicode="8" horiz-adv-x="1288" d="M59 418q0 98 52.5 184t140.5 148q-72 59 -114 135t-42 164q0 178 165 305t396 127q233 0 398.5 -127t165.5 -305q0 -90 -46.5 -170t-123.5 -140q84 -61 132 -144t48 -177q0 -184 -172 -314.5t-414 -130.5t-414 130.5t-172 314.5zM465 969q0 -63 49 -110.5t119 -47.5 t119 47t49 111q0 66 -49.5 111.5t-118.5 45.5q-70 0 -119 -45.5t-49 -111.5zM516 317q0 -51 37 -85.5t88 -34.5q53 0 90 34.5t37 86t-37 86t-90 34.5q-51 0 -88 -35t-37 -86z" />
<glyph unicode="9" horiz-adv-x="1370" d="M61 123q125 90 229.5 181t180.5 185q-178 78 -281.5 201t-101.5 285q0 31 4 64.5t12 66.5q41 172 175.5 267t400.5 93q307 0 473 -169t156 -451q-10 -279 -213 -491t-500 -382l-267 73zM516 887q0 -94 64.5 -159.5t156.5 -65.5q90 0 154.5 65.5t64.5 159.5 q0 92 -64.5 157.5t-154.5 65.5q-92 0 -156.5 -65.5t-64.5 -157.5z" />
<glyph unicode=":" horiz-adv-x="669" d="M31 166l274 309l334 -244l-272 -276q0 2 -53 34l-115 70l-114 72q-52 33 -54 35zM31 739l274 310l334 -244l-272 -277l-53 33l-115 72l-114 72q-52 32 -54 34z" />
<glyph unicode=";" horiz-adv-x="655" d="M31 -268l155 553h71h149h152h69l-25 -158q-16 -111 -116.5 -186.5t-217.5 -126.5q-66 -27 -128 -47zM31 739l274 310l334 -244l-272 -277l-53 33l-115 72l-114 72q-52 32 -54 34z" />
<glyph unicode="&#x3c;" d="M35 557v164l735 424l125 -217l-78 -45l-172 -99l-170 -98q-78 -45 -80 -47l500 -289l-125 -217z" />
<glyph unicode="=" d="M-14 356v279h942v-279h-942zM-14 725v279h942v-279h-942z" />
<glyph unicode="&#x3e;" d="M23 350l499 289q-2 2 -80 47l-170 98l-172 99l-77 45l124 217l736 -424v-164l-736 -424z" />
<glyph unicode="?" horiz-adv-x="776" d="M35 672q0 51 21.5 101t54.5 99q27 39 40 75t13 69q0 14 -3 27.5t-7 27.5q-14 41 -39 83t-58 83l392 215q66 -33 125 -69.5t98 -94.5q23 -31 38 -63.5t15 -73.5q0 -27 -8 -57.5t-29 -67.5q-8 -14 -14 -31l-12 -32q0 -2 -2 -5l-3 -6q-2 -8 -6 -17t-8 -20 q-12 -29 -19.5 -60.5t-7.5 -63.5q0 -12 2 -25l5 -25q4 -14 8 -26.5t10 -24.5q14 -25 30.5 -48.5t35.5 -45.5q2 -4 4 -7t4 -5l13 -18l13 -17l-20 -12l-21 -13q-47 -29 -96 -54.5t-100 -35.5q-6 -2 -11.5 -3t-9.5 -1q-4 -2 -9 -3t-11 -1l268 -195l-270 -276q0 2 -53 34 l-117 70l-114 72q-52 33 -54 35l223 250q-92 0 -163.5 31.5t-112.5 101.5q-18 31 -26.5 61.5t-8.5 61.5z" />
<glyph unicode="@" horiz-adv-x="1024" />
<glyph unicode="A" horiz-adv-x="1818" d="M23 0l573 1452h528l686 -1452h-583l-94 231h-484l-84 -231h-542zM791 623h180l-97 229z" />
<glyph unicode="B" horiz-adv-x="1417" d="M27 0q16 365 16 727.5t-16 724.5h868q16 0 33.5 -3t36.5 -9q68 -23 134 -80t118 -123q51 -63 83 -120q35 -60 36 -88q0 -41 -39 -96l-91 -124l-44 -57l-40 -56l38 -34l38 -37l34 -31l34 -31q47 -49 81.5 -97t34.5 -91v-9q0 -5 -2 -10q-4 -18 -12 -37.5t-18 -39.5 q-41 -76 -119 -144.5t-162 -103.5q-33 -14 -65.5 -22.5t-63.5 -8.5h-240h-217h-217h-239zM590 815q78 10 137 38t59 95v4v4v2v5q-6 66 -63 95t-129 46q-2 -72 -3 -144.5t-1 -144.5zM600 545q0 -41 2 -83l4 -83l4 -66q2 -33 2 -65q82 16 134.5 46t50.5 116q0 51 -58.5 83 t-138.5 52z" />
<glyph unicode="C" horiz-adv-x="1132" d="M53 737q0 270 229.5 480t575.5 280l254 -422q-168 -35 -275.5 -124t-107.5 -201q0 -113 109.5 -202t277.5 -124l-207 -455q-367 59 -611.5 274t-244.5 494z" />
<glyph unicode="D" horiz-adv-x="1478" d="M43 0q14 365 14 727.5t-14 724.5h590q225 -2 400 -68.5t286 -214.5q72 -96 109.5 -207.5t44.5 -226.5v-16v-17q0 -211 -113 -396t-338 -269q-92 -35 -196 -37q-52 -1 -106.5 -1t-113.5 1h-62h-65h-218h-218zM618 705.5q0 -119.5 3 -240.5q109 10 188.5 70.5t130.5 166.5 q-63 133 -146 184.5t-173 57.5q-3 -119 -3 -238.5z" />
<glyph unicode="E" horiz-adv-x="1214" d="M18 0q8 182 11.5 363.5t3.5 363.5q0 180 -4 362.5t-11 362.5h254h256h254h254l86 -387q-125 20 -253 24q-30 1 -59 0q-99 0 -198 -8q-2 -41 -2 -84v-86q92 -6 184 -6q34 0 69 1q126 3 251 24l-86 -387h-420q0 -20 1 -42t1 -44q0 -20 1 -42t1 -44q92 -6 185 -6q34 0 68 1 q126 3 251 23l-86 -389h-253h-253h-253h-253z" />
<glyph unicode="F" horiz-adv-x="1292" d="M23 0q6 182 10 363.5t4 363.5q0 180 -4 362.5t-10 362.5h1110l65 -422q-92 18 -197.5 29.5t-212.5 15.5q-43 2 -86 2h-86q0 -25 -1 -48t-1 -46q-2 -23 -2 -46v-48h469l66 -463q-92 18 -196.5 30.5t-211.5 18.5q-31 0 -62.5 1t-62.5 1q0 -59 2 -118.5t2 -118.5l5 -121 l4 -119h-604z" />
<glyph unicode="G" horiz-adv-x="1617" d="M31.5 772q11.5 43 34.5 86q133 240 356 402.5t571 261.5l267 -392q-174 -68 -336 -148.5t-281 -205.5q-16 -16 -23.5 -32.5t-7.5 -32.5q0 -20 11.5 -41t27.5 -41q82 -94 154 -125q63 -27 115 -27h14l4 426l547 -153q-14 -90 -20.5 -178.5t-6.5 -174.5q0 -100 9.5 -199.5 t23.5 -197.5h-754q-76 0 -132 7t-107 34q-20 10 -41 23.5t-41 31.5q-27 20 -55 44l-56 50q-109 100 -197 229q-87 125 -88 261q0 49 11.5 92z" />
<glyph unicode="H" horiz-adv-x="1619" d="M31 0q8 182 11 363.5t3 363.5q0 180 -4 362.5t-10 362.5h604q-4 -115 -7 -231.5t-5 -233.5h288q-2 117 -5 233.5t-7 231.5h604q-6 -180 -10 -362.5t-4 -362.5q0 -182 3 -363.5t11 -363.5h-604q4 119 7 236.5t5 236.5h-288q2 -119 5 -236.5t7 -236.5h-604z" />
<glyph unicode="I" horiz-adv-x="665" d="M31 0q6 182 10 363.5t4 363.5q0 180 -4 362.5t-10 362.5h604q-6 -180 -10 -362.5t-4 -362.5q0 -182 3 -363.5t11 -363.5h-604z" />
<glyph unicode="J" horiz-adv-x="1202" d="M10 565q88 -33 187 -48q87 -14 184 -13h27q66 4 102 57q32 46 32 131q0 14 -1 29q-6 117 -17.5 232.5t-21.5 232.5l-13 134l-12 132h625q0 -20 -1 -41.5t-1 -44.5q-6 -256 -9 -509q-1 -58 -1 -116q0 -193 8 -383q-57 -119 -131 -210t-174 -148h-45h-46h-113h-112 q-78 2 -156.5 5t-158.5 11z" />
<glyph unicode="K" horiz-adv-x="1689" d="M8 0q14 182 21.5 363.5t7.5 363.5q0 180 -7 362.5t-22 362.5h606q-6 -150 -9 -301.5t-5 -302.5l260 604l598 -117l-364 -628l450 -590l-598 -117l-346 489q0 -61 2 -122.5t2 -120.5q2 -61 5 -123t5 -123h-606z" />
<glyph unicode="L" horiz-adv-x="1249" d="M12 0q14 182 20.5 363.5t6.5 363.5q0 180 -7 362.5t-20 362.5h619l-16 -451q-4 -126 -3 -243v-92q0 -37 1 -76t1 -78h48q105 0 198 7q115 9 227 30q14 2 30 5t30 5l-100 -559h-1035z" />
<glyph unicode="M" horiz-adv-x="2066" d="M-2 0l358 1452h412l289 -651q90 147 175 310t165 341h397q31 -377 92.5 -740.5t161.5 -711.5h-612l-105 502l-327 -502l-324 520l-133 -520h-549z" />
<glyph unicode="N" horiz-adv-x="1701" d="M12 0q23 176 34 356.5t11 360.5q0 182 -11 365.5t-34 369.5h416l604 -541l-12 271l-12 270h606q-24 -283 -24 -569q0 -76 1 -153q8 -364 23 -730h-400l-649 668v-103q0 -51 -2 -102v-65v-64q-1 -56 -1 -112v-55q1 -83 5 -167h-555z" />
<glyph unicode="O" horiz-adv-x="1611" d="M18 727q0 330 216.5 527.5t572.5 197.5t571 -197.5t215 -527.5q0 -332 -215 -529.5t-571 -197.5t-572.5 197.5t-216.5 529.5zM573 741q0 -96 69 -164.5t165 -68.5t164.5 68.5t68.5 165t-68.5 165t-164.5 68.5t-165 -69t-69 -165z" />
<glyph unicode="P" horiz-adv-x="1476" d="M16 0q31 360 32 723v22q0 352 -32 707h605q147 -2 245.5 -12t149.5 -45q100 -70 178 -145.5t123 -162.5q23 -39 32 -82.5t9 -91.5q0 -29 -3 -57.5t-9 -56.5q-23 -102 -72 -199.5t-105 -165.5q-2 0 -3 -2t-3 -4q-35 -39 -85 -64.5t-117 -29.5q-73 -6 -140 -6q-25 0 -50 1 q-89 3 -171 11l8 -171q4 -85 13 -169h-605zM592 649q90 27 158.5 85.5t113.5 148.5q10 16 13.5 30.5t3.5 28.5q0 25 -11.5 46.5t-29.5 35.5q-55 53 -114.5 89t-123.5 63q-6 -131 -9 -264q-2 -79 -2 -158q0 -53 1 -105z" />
<glyph unicode="Q" horiz-adv-x="1732" d="M4 727q0 330 216 527.5t573 197.5q356 0 571 -197.5t215 -527.5q0 -182 -67.5 -325.5t-190.5 -239.5l201 -146l-330 -288l-201 290q-45 -8 -95 -13t-103 -5q-356 0 -572.5 197.5t-216.5 529.5zM559 741q0 -96 68.5 -164.5t165.5 -68.5q96 0 164.5 68.5t68.5 165 t-68.5 165t-164.5 68.5t-165 -69t-69 -165z" />
<glyph unicode="R" horiz-adv-x="1628" d="M-14 1452h600q41 0 84 -1t88 -3q115 -4 215 -14.5t135 -32.5q96 -63 169 -131t118 -146q10 -18 17 -35.5t11 -33.5t6.5 -33.5t2.5 -36.5q0 -100 -57.5 -192.5t-127.5 -169.5q-20 -23 -45.5 -40.5t-56.5 -29.5q25 -61 62.5 -143t92.5 -166q35 -51 76 -101.5t88 -97.5 l-510 -74q-74 80 -140 168l-130 176l-35 49l-33 48l-24 33l-25 34q0 -43 -3 -97t-5 -110q-2 -18 -3 -35.5t-1 -35.5q-4 -63 -7 -116.5t-5 -84.5h-531q10 115 15.5 240t5.5 256q0 59 -1 119.5t-3 119.5q-6 188 -17.5 371.5t-25.5 345.5zM559 657q84 23 149.5 76t108.5 133 q8 16 12.5 26.5t4.5 18.5t-3.5 14.5t-9.5 12.5q-4 6 -11 12t-15 15q-43 39 -90 61l-95 43l-20 8l-21 8q-2 -59 -5 -111t-3 -102q-2 -51 -2 -103v-112z" />
<glyph unicode="S" horiz-adv-x="1034" d="M2 201q139 39 210 104q69 64 69 149q0 44 -12.5 87t-41.5 88q-16 29 -38 55l-42 53l-2 2q-25 29 -47 59.5t-41 63.5q-23 43 -33 83t-10 79q0 74 35 140.5t88 123.5q59 66 145.5 112t196.5 83l410 -248q-63 -39 -112.5 -84t-76.5 -100q-4 -8 -7 -15.5t-5 -15.5 q-4 -16 -6 -31.5t-2 -30.5q0 -39 14.5 -74.5t40.5 -64.5q78 -84 129 -166t70 -161q4 -20 6 -41t2 -41q0 -43 -11 -86t-34 -86q-59 -113 -169 -183.5t-243 -117.5z" />
<glyph unicode="T" horiz-adv-x="1452" d="M0 942l41 510h1278l-107 -500q-35 0 -70.5 4.5t-72.5 10.5h-3h-3l-74 8q-37 4 -74 4q-2 -141 -2 -288.5t5 -297.5l4 -197q2 -99 6 -196h-584q4 98 7 198.5t3 202.5q4 145 4 290t-2 284h-11h-11q-84 -2 -168 -6t-166 -27z" />
<glyph unicode="U" horiz-adv-x="1660" d="M16 154q39 201 54.5 382t15.5 347q0 152 -11.5 292t-27.5 277h149h148h149h148v-13v-14q-4 -238 -15.5 -468t-66.5 -422q57 -53 136 -86t179 -33q16 0 35 1t37 3q-12 166 -16 339q-3 115 -3 231q0 58 1 116q2 86 6 173l8 173h586q-6 -180 -10.5 -362.5t-4.5 -362.5 q0 -182 3.5 -363.5t11.5 -363.5h-539l-12 99l-12 102q-8 -12 -17.5 -24.5l-19.5 -24.5q-10 -16 -21.5 -32t-23.5 -30q-20 -29 -41 -54.5t-41 -47.5h-19q-201 0 -388 41q-196 43 -378 125z" />
<glyph unicode="V" horiz-adv-x="1859" d="M2 1266l561 186l166 -353l164 -356l117 387l114 386l143 -49l142 -48l142 -49l143 -49q-143 -330 -262 -660.5t-215 -660.5h-298h-301l-291 634q-153 317 -325 632z" />
<glyph unicode="W" horiz-adv-x="2516" d="M2 1305l580 147l176 -647l418 647l389 -584l188 584l537 -86l-406 -1366h-383l-325 590l-308 -590h-432q-94 324 -200.5 649.5t-233.5 655.5z" />
<glyph unicode="X" horiz-adv-x="1736" d="M-10 119l235 281l224 278l-445 596l545 178l110 -167l119 -171l119 171l111 167l544 -178l-444 -596l224 -278l235 -281l-613 -119l-176 236l-176 -236z" />
<glyph unicode="Y" horiz-adv-x="1533" d="M2 1452h551l178 -438l166 438h500l-572 -1452h-596l213 483z" />
<glyph unicode="Z" horiz-adv-x="1626" d="M23 0l550 950l-550 -47l145 549h1333l-563 -934l522 27l-139 -545h-1298z" />
<glyph unicode="[" horiz-adv-x="653" d="M31 103v511v512v512h594v-151h-209v-1745h209v-152h-594v513z" />
<glyph unicode="\" horiz-adv-x="1097" d="M39 1638h182l815 -2048h-184z" />
<glyph unicode="]" horiz-adv-x="653" d="M59 -258h209v1745h-209v151h594v-512v-512v-511v-511v-2h-594v152z" />
<glyph unicode="^" horiz-adv-x="1054" d="M27 860l424 735h163l424 -735l-217 -125l-289 500q-2 -2 -47 -80l-96 -170l-100 -171l-45 -79z" />
<glyph unicode="_" horiz-adv-x="952" d="M-29 -205h1024v-196h-1024v196z" />
<glyph unicode="`" horiz-adv-x="677" d="M6 1610l313 114l326 -372l-242 -49q-115 47 -214 124t-183 183z" />
<glyph unicode="a" horiz-adv-x="1732" d="M20 0l504 1278h465l604 -1278h-514l-82 203h-426l-73 -203h-478zM696 549h158l-84 201z" />
<glyph unicode="b" horiz-adv-x="1312" d="M23 0q10 213 13 426q1 91 1 183q0 122 -2 243q-2 106 -5 212.5t-7 213.5h765q14 0 30 -3t30 -7q61 -20 119.5 -71.5t103.5 -106.5q45 -57 74 -108q31 -54 31 -75q0 -36 -33 -85q-35 -52 -78 -107q-2 0 -3 -2l-1 -2l-39 -52l-35 -47l33 -29l33 -32l36 -33l33 -33 q39 -41 67 -79.5t28 -75.5v-4v-4q0 -2 -1.5 -4.5t-1.5 -4.5q-4 -16 -10 -32.5t-14 -32.5q-37 -68 -105.5 -129.5t-144.5 -91.5q-29 -12 -57.5 -19.5t-55.5 -7.5h-210h-191h-194h-209zM518 717q70 10 123 35q51 24 51 81v3.5v4.5v3v4q-6 57 -56 82.5t-114 40.5 q-2 -63 -3 -125.5t-1 -128.5zM528 479q0 -33 1 -65.5t3 -65.5v-9q0 -5 3 -9q0 -29 2 -56.5t2 -56.5q72 16 117.5 42t43.5 101q0 45 -50 74t-122 45z" />
<glyph unicode="c" horiz-adv-x="1028" d="M47 649q0 238 202 423t507 245l223 -371q-147 -31 -242.5 -109.5t-95.5 -177.5q0 -100 96.5 -178t245.5 -108l-182 -400q-324 53 -539 241.5t-215 434.5z" />
<glyph unicode="d" horiz-adv-x="1386" d="M37 0q8 213 11 426q1 91 1 183q0 122 -2 243q0 106 -3 212.5t-7 213.5h520q197 -2 351.5 -60.5t252.5 -189.5q63 -84 97 -182t38 -201v-13v-16q0 -184 -99 -348t-298 -235q-80 -31 -171 -33q-46 -1 -94 -1t-99 1h-56h-57h-97h-96h-95h-97zM545 619.5q0 -105.5 2 -209.5 q96 10 165.5 62t114.5 146q-57 117 -128.5 162t-151.5 51q-2 -106 -2 -211.5z" />
<glyph unicode="e" horiz-adv-x="1069" d="M16 0q13 298 14 596v43q-1 319 -14 639h225h224h222h224l76 -340q-111 16 -222 19q-30 1 -61 1q-82 0 -165 -6q0 -18 -1 -36.5t-1 -36.5v-39v-37q82 -6 162 -6q30 0 61 1q111 3 221 21l-76 -342h-370q0 -18 1 -36.5t1 -39.5q0 -18 1 -37.5t1 -37.5q75 -5 149 -6 q37 0 74 2q111 4 221 20l-76 -342h-298h-296h-148h-149z" />
<glyph unicode="f" horiz-adv-x="1136" d="M20 0q12 319 12.5 638.5t-12.5 639.5h977l58 -371q-78 14 -168 24.5t-182 14.5q-41 2 -82 2h-80q-2 -41 -3 -83t-1 -83h413l58 -407q-78 16 -167 26.5t-181 16.5q-31 0 -61 1t-60 1q0 -53 1 -105.5t3 -103.5q2 -53 3 -105.5t3 -105.5h-531z" />
<glyph unicode="g" horiz-adv-x="1423" d="M72.5 679q9.5 38 29.5 77q119 211 314.5 354t503.5 229l233 -344q-154 -59 -296 -130.5t-247 -180.5q-14 -14 -21 -29.5t-5 -29.5q0 -8 3 -17.5t7 -17.5q4 -10 10 -19l14 -18q66 -76 125 -106q56 -28 101 -27h6h9h7l4 375l482 -136q-12 -78 -18.5 -154.5t-6.5 -152.5 q0 -88 8 -176t23 -176h-664q-68 0 -116 6t-95 29l-34 21q-18 11 -37 28l-48 40q-26 22 -51 46q-94 86 -173 199q-77 110 -77 229q0 43 9.5 81z" />
<glyph unicode="h" horiz-adv-x="1425" d="M27 0q13 298 13 596v43q-1 319 -13 639h532q-4 -100 -7 -203.5t-3 -206.5h254q-2 102 -5 206t-7 204h532q-12 -319 -13 -639v-43q0 -298 13 -596h-532q4 104 7 208.5t5 207.5h-254q0 -102 3 -207t7 -209h-532z" />
<glyph unicode="i" horiz-adv-x="585" d="M27 0q12 319 12 638.5t-12 639.5h532q-12 -319 -13 -639v-43q0 -298 13 -596h-532z" />
<glyph unicode="j" horiz-adv-x="1058" d="M49 498q78 -29 164 -43q75 -13 160 -13h24q59 4 91 52q28 42 29 120q0 10 -1 21q-6 102 -15 204l-20 205l-12 116q-6 58 -10 118h551q-6 -244 -10 -486q-1 -66 0 -132q0 -175 6 -345q-51 -104 -116 -184t-153 -131h-42h-44h-95h-95q-70 2 -139.5 5t-139.5 9z" />
<glyph unicode="k" horiz-adv-x="1486" d="M68 0q23 319 22.5 638.5t-22.5 639.5h532q-4 -131 -7 -265t-5 -268l229 533l526 -102l-321 -553l397 -521l-526 -102l-305 430q2 -106 5 -213.5t7 -216.5h-532z" />
<glyph unicode="l" horiz-adv-x="1099" d="M51 0q24 307 24 613v26q-1 319 -24 639h543q-10 -242 -13 -397.5t-3 -292.5q0 -35 1 -69t1 -68q23 0 45 -1q89 0 170 7q100 8 198 24q14 2 27.5 5t28.5 6l-88 -492h-910z" />
<glyph unicode="m" horiz-adv-x="1984" d="M90 0l316 1278h362l254 -573q80 131 154.5 274t144.5 299h350q27 -332 81 -652.5t142 -625.5h-538l-92 442l-289 -442l-285 459l-117 -459h-483z" />
<glyph unicode="n" horiz-adv-x="1550" d="M70 0q20 156 30.5 312.5t10.5 314.5q-2 162 -11.5 324.5t-29.5 326.5h366l533 -475q-2 59 -5 118.5l-6 118.5q-4 59 -6 119t-6 119h533q-21 -240 -21 -485v-44q2 -267 12 -534q2 -43 3.5 -84t3.5 -84q0 -12 1 -23.5t1 -23.5h-351l-571 588v-90q0 -45 -2 -90v-58v-55 q-1 -49 -1 -98v-50q1 -74 5 -147h-489z" />
<glyph unicode="o" horiz-adv-x="1523" d="M68 639q0 293 190.5 466t503.5 173t502.5 -173t189.5 -466q0 -291 -189.5 -465t-502.5 -174t-503.5 174t-190.5 465zM557 653q0 -86 60.5 -146.5t144.5 -60.5q86 0 146.5 60.5t60.5 146.5q0 84 -60.5 144.5t-146.5 60.5q-84 0 -144.5 -60.5t-60.5 -144.5z" />
<glyph unicode="p" horiz-adv-x="1298" d="M59 0q14 164 21.5 328t7.5 329q0 154 -7 309.5t-22 311.5h533q129 -2 215 -10t131 -41q90 -61 157.5 -127t108.5 -144q18 -33 26.5 -71.5t8.5 -79.5q0 -25 -3 -50.5t-9 -52.5q-18 -90 -61.5 -175t-90.5 -144q-2 0 -3 -2t-3 -4q-31 -35 -75 -57.5t-103 -26.5 q-66 -5 -127 -5q-20 0 -40 1q-79 2 -151 10q4 -76 7.5 -150.5t11.5 -148.5h-533zM565 571q78 23 139.5 74t100.5 131q8 16 11 29.5t3 25.5q0 23 -9 39.5t-26 30.5q-49 47 -101 78t-108 55q-6 -117 -9 -232q-2 -69 -2 -139q0 -46 1 -92z" />
<glyph unicode="q" horiz-adv-x="1523" d="M68 639q0 293 190.5 466t503.5 173t502.5 -173t189.5 -466q0 -160 -59.5 -286t-167.5 -210l178 -129l-291 -254l-176 256q-41 -8 -85 -12t-91 -4q-313 0 -503.5 174t-190.5 465zM557 653q0 -86 60.5 -146.5t144.5 -60.5q86 0 146.5 60.5t60.5 146.5q0 84 -60.5 144.5 t-146.5 60.5q-84 0 -144.5 -60.5t-60.5 -144.5z" />
<glyph unicode="r" horiz-adv-x="1433" d="M14 1278h529q35 0 73.5 -1t79.5 -3q100 -2 188.5 -11.5t119.5 -29.5q84 -57 148.5 -116.5t102.5 -127.5q18 -31 25.5 -61.5t7.5 -61.5q0 -86 -49 -165.5t-106 -145.5l-4 -3l-3 -3q-18 -20 -40.5 -35.5t-49.5 -26.5q20 -55 55 -127.5t85 -146.5q29 -45 64.5 -89t76.5 -85 l-449 -64q-66 72 -125 149t-114 157l-29 37l-27 38l-23 33l-24 33q0 -37 -2 -85l-4 -97q-2 -20 -3 -41t-1 -39q-4 -51 -6 -93t-4 -67h-467q10 100 14 209.5t4 224.5q0 55 -1 111.5t-3 111.5q-6 162 -16.5 321t-22.5 300zM520 578q74 23 131.5 68.5t96.5 115.5q8 14 11 23.5 t3 17.5t-4 14l-8 12q-4 4 -10.5 8.5t-12.5 10.5q-37 35 -78 54.5t-84 37.5q-8 2 -17 6t-20 8l-4 -94q-2 -45 -2 -88q-2 -47 -2 -94v-100z" />
<glyph unicode="s" horiz-adv-x="909" d="M41 176q121 35 183.5 91.5t62.5 133.5q0 35 -11.5 73t-35.5 79q-14 25 -33 48l-37 46q-2 2 -3 4t-3 4l-40 51q-19 26 -34 52q-20 39 -29.5 74.5t-9.5 68.5q2 66 33 124t76 110q53 55 129 96t172 74l360 -218q-57 -33 -100 -73.5t-66 -89.5q-8 -20 -12 -40t-4 -40 q0 -35 12.5 -65.5t34.5 -57.5q86 -92 134 -181t48 -180q0 -37 -9 -74.5t-30 -76.5q-53 -100 -149 -161.5t-213 -102.5z" />
<glyph unicode="t" horiz-adv-x="1277" d="M57 829l39 449h1125l-95 -440q-31 0 -62 4l-63 8l-68 8q-34 4 -69 4v-250q0 -127 2 -256l4 -179q2 -89 7 -177h-515q4 90 7 181l4 181q2 127 2 251t-2 245h-12h-11q-72 -2 -145.5 -6.5t-147.5 -22.5z" />
<glyph unicode="u" horiz-adv-x="1462" d="M68 135q35 176 48 335t13 304q0 133 -9 259t-26 245h261h261v-13v-14q-4 -209 -14 -410.5t-57 -369.5q51 -47 121.5 -76.5t158.5 -29.5h16q7 0 15 2q6 0 13.5 1t15.5 1q-10 147 -14 299q-2 91 -1 182v123q0 76 3.5 152.5t7.5 152.5h516q-12 -319 -14 -639v-43 q0 -298 14 -596h-473q-2 23 -5.5 44.5t-5.5 43.5q-4 20 -6 43t-6 45q-10 -14 -21.5 -28.5t-21.5 -28.5l-51 -69q-25 -34 -49 -60h-20q-176 0 -340 35q-172 36 -330 110z" />
<glyph unicode="v" horiz-adv-x="1636" d="M0 1114l494 164l146 -311l144 -314l34 114l34 114l69 226l66 226l126 -42l126 -42q61 -23 124 -43l126 -43q-125 -291 -230.5 -581.5t-189.5 -581.5h-262h-264l-125 279l-131 278l-140 279z" />
<glyph unicode="w" horiz-adv-x="2215" d="M2 1149l510 129l156 -569l368 569l342 -514l166 514l471 -76l-356 -1202h-338l-285 518l-270 -518h-381q-84 285 -178 571.5t-205 577.5z" />
<glyph unicode="x" horiz-adv-x="1527" d="M-4 104l208 248l195 244l-391 524l481 158q45 -74 97 -148l104 -149l105 149l98 148l479 -158l-391 -524l196 -244l207 -248l-538 -104l-156 207l-155 -207z" />
<glyph unicode="y" horiz-adv-x="1349" d="M2 1278h485l156 -385l145 385h441l-502 -1278h-524l186 426z" />
<glyph unicode="z" horiz-adv-x="1431" d="M6 0l483 836l-483 -41l127 483h1174l-496 -821l459 22l-121 -479h-1143z" />
<glyph unicode="{" horiz-adv-x="690" d="M31 588v35h35q51 4 86.5 41.5t35.5 91.5v376v373q0 55 39 94t95 39h335v-34h-24q-53 0 -92 -39t-39 -92v-376v-376q0 -37 -19.5 -67.5t-48.5 -47.5q29 -16 48.5 -48t19.5 -69v-364v-367q0 -53 39 -92t92 -39l24 -2v-35h-335q-55 2 -94.5 41t-39.5 95v364v367 q0 53 -35.5 91t-86.5 40h-35z" />
<glyph unicode="|" horiz-adv-x="337" d="M35 -410v2048h278v-2048h-278z" />
<glyph unicode="}" horiz-adv-x="690" d="M35 -375h24q53 2 92 41t39 92v367v364q0 37 19.5 69t48.5 48q-29 16 -48.5 47t-19.5 68v376v376q0 53 -38.5 92t-92.5 39h-24v34h336q55 0 94 -38.5t39 -94.5v-373v-376q0 -53 35.5 -91t87.5 -42h35v-35h-35q-51 -2 -87 -40t-36 -91v-367v-364q0 -55 -39 -94.5t-94 -39.5 l-336 -2v35z" />
<glyph unicode="~" horiz-adv-x="1083" d="M49 713l141 133l16 -11l15 -12q18 -14 36.5 -26.5t39.5 -22.5q12 -6 26.5 -9t26.5 -3h7h8q2 0 6 1t6 3q121 47 205 83t147 36h12q6 0 13 -2q129 -18 185 -79t95 -132l-160 -154l-8 12q-4 6 -10 13q-25 35 -64.5 62.5t-89.5 27.5q-10 0 -21 -1t-22 -5l-55 -21 q-27 -10 -49 -22l-88 -42q-41 -19 -80 -26q-12 -2 -23 -2h-22q-111 8 -178.5 59.5t-114.5 139.5z" />
<glyph unicode="&#xa2;" horiz-adv-x="915" d="M41 729q0 133 72.5 249t197.5 200v274h287v-145q18 4 36.5 9t39.5 9l196 -332q-131 -27 -215 -96.5t-84 -159.5q0 -88 86 -157.5t217 -96.5l-161 -358l-58 12q-29 6 -57 15v-152h-287v281q-125 84 -197.5 200.5t-72.5 247.5z" />
<glyph unicode="&#xa3;" horiz-adv-x="808" d="M37 319q109 29 164 81.5t55 121.5q-2 31 -11 63.5t-32 69.5q-14 25 -32 47l-34 46q-18 20 -35.5 42.5t-31.5 47.5q-18 35 -26.5 66.5t-8.5 60.5q2 59 29.5 110t68.5 96q18 23 41 41.5t49 32.5v207h287v-192l213 -130q-51 -31 -90 -66.5t-57 -78.5q-2 -6 -5 -12l-6 -12 q-4 -12 -5 -24.5t-1 -25.5q0 -31 11.5 -57.5t31.5 -48.5q76 -82 118 -162t42 -158q0 -33 -8 -67.5t-27 -69.5q-33 -66 -89 -113t-128 -81v-154h-287v211z" />
<glyph unicode="&#xa5;" horiz-adv-x="1533" d="M70 1452h551l178 -438l166 438h499l-282 -715h223l-64 -125h-206l-39 -96h309l-64 -125h-247l32 -391h-655l31 391h-373l64 125h301l-43 96h-322l64 125h202z" />
<glyph unicode="&#xa9;" horiz-adv-x="1583" d="M33 678q0 152 57 290t164 246q106 109 246.5 166.5t292.5 57.5q147 0 286.5 -57.5t245.5 -163.5q106 -104 164.5 -246t58.5 -293q0 -150 -57 -288t-166 -249q-106 -106 -243.5 -162.5t-290.5 -56.5q-154 0 -289 55.5t-246 163.5q-109 109 -166 246t-57 291zM156 678 q0 -129 48 -244t138 -205q92 -90 206 -137t243 -47t242.5 48t201.5 136q90 92 139 209t49 240q0 127 -48 244.5t-138 205.5q-88 88 -206 136.5t-240 48.5q-127 0 -244 -48t-207 -139q-90 -92 -137 -206.5t-47 -241.5zM342 672q0 190 128 315t321 125q55 0 94 -10t67 -23 q27 -12 45.5 -22t30.5 -10q23 0 33 14t18 47h54l6 -336h-58q-33 133 -100.5 201.5t-161.5 68.5q-102 0 -155.5 -90t-53.5 -268q0 -182 59.5 -277.5t168.5 -95.5q72 0 138 44t124 132l55 -34q-68 -113 -158 -167.5t-209 -54.5q-193 0 -319.5 126.5t-126.5 314.5z" />
<glyph unicode="&#xad;" horiz-adv-x="518" d="M23 561v279h471v-279h-471z" />
<glyph unicode="&#xae;" horiz-adv-x="1058" d="M55 1182q0 197 147.5 326.5t338.5 129.5q184 0 320 -134t136 -320q0 -188 -141 -315.5t-324 -127.5q-186 0 -331.5 123t-145.5 318zM121 1194q0 -172 122 -281.5t289 -109.5q156 0 276 110.5t120 270.5q0 162 -118 278.5t-278 116.5q-162 0 -286.5 -108.5t-124.5 -276.5z M381 965v456h176h5h5q55 -2 100.5 -25.5t45.5 -86.5q0 -47 -29 -75t-70 -44q29 -12 44.5 -49t25.5 -78q2 -6 4 -13.5t4 -13.5q4 -20 10.5 -38.5t12.5 -32.5h-78q-4 8 -8 21t-8 30q-2 10 -5.5 20.5t-5.5 20.5q-12 43 -28.5 76.5t-49.5 33.5h-79v-202h-72zM453 1229h100 q29 0 53.5 21.5t24.5 49.5v5v4q-2 2 -2 4v4q0 2 -1 3l-1 1q0 2 -1 2t-1 2l-1 2q-1 2 -1 4q-12 12 -25.5 20.5t-32.5 8.5h-112v-131z" />
<glyph unicode="&#xb4;" horiz-adv-x="677" d="M39 1454l326 373l313 -115q-84 -106 -183.5 -183t-213.5 -124z" />
<glyph unicode="&#x2000;" horiz-adv-x="913" />
<glyph unicode="&#x2001;" horiz-adv-x="1826" />
<glyph unicode="&#x2002;" horiz-adv-x="913" />
<glyph unicode="&#x2003;" horiz-adv-x="1826" />
<glyph unicode="&#x2004;" horiz-adv-x="608" />
<glyph unicode="&#x2005;" horiz-adv-x="456" />
<glyph unicode="&#x2006;" horiz-adv-x="303" />
<glyph unicode="&#x2007;" horiz-adv-x="303" />
<glyph unicode="&#x2008;" horiz-adv-x="227" />
<glyph unicode="&#x2009;" horiz-adv-x="364" />
<glyph unicode="&#x200a;" horiz-adv-x="100" />
<glyph unicode="&#x2010;" horiz-adv-x="518" d="M23 561v279h471v-279h-471z" />
<glyph unicode="&#x2011;" horiz-adv-x="518" d="M23 561v279h471v-279h-471z" />
<glyph unicode="&#x2012;" horiz-adv-x="518" d="M23 561v279h471v-279h-471z" />
<glyph unicode="&#x2013;" d="M-14 561v279h942v-279h-942z" />
<glyph unicode="&#x2014;" horiz-adv-x="1816" d="M-35 561v279h1884v-279h-1884z" />
<glyph unicode="&#x2018;" horiz-adv-x="655" d="M33 1149l24 158q16 111 116.5 187.5t217.5 127.5q66 27 128 47l110 35l-156 -555h-71h-148h-153h-68z" />
<glyph unicode="&#x2019;" horiz-adv-x="655" d="M31 1114l155 555h71h149h152h69l-25 -158q-16 -111 -116.5 -187.5t-217.5 -127.5q-66 -27 -128 -47z" />
<glyph unicode="&#x201c;" horiz-adv-x="1140" d="M33 1128l24 158q16 111 116.5 187.5t217.5 128.5q66 27 128 47l110 34l-156 -555h-71h-148h-153h-68zM545 1128l24 158q16 111 116.5 187.5t217.5 128.5q66 27 128 47l110 34l-156 -555h-71h-148h-153h-68z" />
<glyph unicode="&#x201d;" horiz-adv-x="1140" d="M31 1114l155 555h71h149h152h69l-25 -158q-16 -111 -116.5 -187.5t-217.5 -127.5q-66 -27 -128 -47zM543 1114l155 555h71h149h152h69l-25 -158q-16 -111 -116.5 -187.5t-217.5 -127.5q-66 -27 -128 -47z" />
<glyph unicode="&#x2022;" horiz-adv-x="872" d="M55 688l344 387l416 -305l-340 -346l-65 41l-146 90l-141 90q-66 41 -68 43z" />
<glyph unicode="&#x2026;" horiz-adv-x="1875" d="M4 166l275 309l333 -244l-272 -276q0 2 -52 34l-116 70l-114 72q-52 33 -54 35zM639 166l274 309l334 -244l-272 -276q0 2 -52 34l-116 70l-114 72q-52 33 -54 35zM1274 166l274 309l334 -244l-272 -276q0 2 -52 34l-116 70l-114 72q-52 33 -54 35z" />
<glyph unicode="&#x202f;" horiz-adv-x="364" />
<glyph unicode="&#x205f;" horiz-adv-x="456" />
<glyph unicode="&#x2122;" horiz-adv-x="763" d="M53 1489v43h252v-43h-67v-492h-119v492h-66zM334 997v533h123l65 -154l70 154h119v-533h-119v445l-107 -242l-112 248v-451h-39z" />
<glyph unicode="&#xe000;" horiz-adv-x="1280" d="M0 1280h1280v-1280h-1280v1280z" />
<glyph unicode="&#xfb01;" horiz-adv-x="1722" d="M1164 0q12 319 12 638.5t-12 639.5h532q-12 -319 -13 -639v-43q0 -298 13 -596h-532zM20 0q12 319 12.5 638.5t-12.5 639.5h977l58 -371q-78 14 -168 24.5t-182 14.5q-41 2 -82 2h-80q-2 -41 -3 -83t-1 -83h413l58 -407q-78 16 -167 26.5t-181 16.5q-31 0 -61 1t-60 1 q0 -53 1 -105.5t3 -103.5q2 -53 3 -105.5t3 -105.5h-531z" />
<glyph unicode="&#xfb02;" horiz-adv-x="2236" d="M1188 0q24 307 24 613v26q-1 319 -24 639h543q-10 -242 -13 -397.5t-3 -292.5q0 -35 1 -69t1 -68q23 0 45 -1q89 0 170 7q100 8 198 24q14 2 27.5 5t28.5 6l-88 -492h-910zM20 0q12 319 12.5 638.5t-12.5 639.5h977l58 -371q-78 14 -168 24.5t-182 14.5q-41 2 -82 2h-80 q-2 -41 -3 -83t-1 -83h413l58 -407q-78 16 -167 26.5t-181 16.5q-31 0 -61 1t-60 1q0 -53 1 -105.5t3 -103.5q2 -53 3 -105.5t3 -105.5h-531z" />
<glyph unicode="&#xfb03;" horiz-adv-x="2859" d="M2300 0q12 319 12 638.5t-12 639.5h532q-12 -319 -13 -639v-43q0 -298 13 -596h-532zM1157 0q12 319 12.5 638.5t-12.5 639.5h977l58 -371q-78 14 -168 24.5t-182 14.5q-41 2 -82 2h-80q-2 -41 -3 -83t-1 -83h413l58 -407q-78 16 -167 26.5t-181 16.5q-31 0 -61 1t-60 1 q0 -53 1 -105.5t3 -103.5q2 -53 3 -105.5t3 -105.5h-531zM20 0q12 319 12.5 638.5t-12.5 639.5h977l58 -371q-78 14 -168 24.5t-182 14.5q-41 2 -82 2h-80q-2 -41 -3 -83t-1 -83h413l58 -407q-78 16 -167 26.5t-181 16.5q-31 0 -61 1t-60 1q0 -53 1 -105.5t3 -103.5 q2 -53 3 -105.5t3 -105.5h-531z" />
<glyph unicode="&#xfb04;" horiz-adv-x="3373" d="M2324 0q24 307 24 613v26q-1 319 -24 639h543q-10 -242 -13 -397.5t-3 -292.5q0 -35 1 -69t1 -68q23 0 45 -1q89 0 170 7q100 8 198 24q14 2 27.5 5t28.5 6l-88 -492h-910zM1157 0q12 319 12.5 638.5t-12.5 639.5h977l58 -371q-78 14 -168 24.5t-182 14.5q-41 2 -82 2 h-80q-2 -41 -3 -83t-1 -83h413l58 -407q-78 16 -167 26.5t-181 16.5q-31 0 -61 1t-60 1q0 -53 1 -105.5t3 -103.5q2 -53 3 -105.5t3 -105.5h-531zM20 0q12 319 12.5 638.5t-12.5 639.5h977l58 -371q-78 14 -168 24.5t-182 14.5q-41 2 -82 2h-80q-2 -41 -3 -83t-1 -83h413 l58 -407q-78 16 -167 26.5t-181 16.5q-31 0 -61 1t-60 1q0 -53 1 -105.5t3 -103.5q2 -53 3 -105.5t3 -105.5h-531z" />
</font>
</defs>
</svg>
